<?xml version="1.0" encoding="UTF-8" standalone="no"?>
<svg
   xmlns:dc="http://purl.org/dc/elements/1.1/"
   xmlns:cc="http://creativecommons.org/ns#"
   xmlns:rdf="http://www.w3.org/1999/02/22-rdf-syntax-ns#"
   xmlns:svg="http://www.w3.org/2000/svg"
   xmlns="http://www.w3.org/2000/svg"
   xmlns:sodipodi="http://sodipodi.sourceforge.net/DTD/sodipodi-0.dtd"
   xmlns:inkscape="http://www.inkscape.org/namespaces/inkscape"
   height="100"
   width="220"
   inkscape:version="1.0 (4035a4f, 2020-05-01)"
   sodipodi:docname="logo.svg"
   id="svg71"
   version="1.1"
   viewBox="0 0 220.00001 100">
  <metadata
     id="metadata75">
    <rdf:RDF>
      <cc:Work
         rdf:about="">
        <dc:format>image/svg+xml</dc:format>
        <dc:type
           rdf:resource="http://purl.org/dc/dcmitype/StillImage" />
        <dc:title>europcar_logo</dc:title>
      </cc:Work>
    </rdf:RDF>
  </metadata>
  <sodipodi:namedview
     inkscape:current-layer="svg71"
     inkscape:window-maximized="0"
     inkscape:window-y="23"
     inkscape:window-x="0"
     inkscape:cy="153.915"
     inkscape:cx="265.70089"
     inkscape:zoom="1.5205067"
     showgrid="false"
     id="namedview73"
     inkscape:window-height="933"
     inkscape:window-width="1387"
     inkscape:pageshadow="2"
     inkscape:pageopacity="0"
     guidetolerance="10"
     gridtolerance="10"
     objecttolerance="10"
     borderopacity="1"
     bordercolor="#666666"
     pagecolor="#ffffff" />
  <defs
     id="defs15">
    <style
       id="style10">.cls-1{fill:none;}.cls-2{clip-path:url(#clip-path);}.cls-3{fill:#00bcb4;}.cls-4{fill:#00675f;}.cls-5{fill:#183029;}</style>
    <clipPath
       id="clip-path">
      <rect
         y="0"
         x="0"
         id="rect12"
         height="307.82999"
         width="721.46997"
         class="cls-1" />
    </clipPath>
  </defs>
  <title
     id="title17">europcar_logo</title>
  <g
     transform="matrix(0.23513682,0,0,0.23513682,27.311579,13.153509)"
     data-name="Calque 2"
     id="Calque_2">
    <g
       data-name="Calque 1"
       id="Calque_1-2">
      <g
         id="g67"
         clip-path="url(#clip-path)"
         class="cls-2">
        <path
           id="path19"
           d="M 98.46,121.7 H 206.3 c 4.15,0 7.51,-3.67 7.51,-8.2 v -29 c 0,-4.53 -3.36,-8.2 -7.51,-8.2 H 98.46 C 68,76.28 42.8,86.54 25.58,105.95 8.85,124.82 0,151.85 0,184.13 c 0,17.44 2.7,33.53 7.92,47.78 a 101.87,101.87 0 0 0 17.53,30.7 87.58,87.58 0 0 0 18.47,16.59 c 15.25,10.18 33.73,15.46 54.54,15.46 H 206.3 c 4.15,0 7.51,-3.67 7.51,-8.2 v -66.89 a 7.51,7.51 0 0 0 -7.51,-7.51 h -30.72 a 7.51,7.51 0 0 0 -7.51,7.51 v 29.67 H 99.69 c -12.83,0 -25.72,-4 -35.87,-12.44 -11.41,-9.48 -19.35,-29.1 -19.88,-50.4 0,-0.75 0,-1.5 0,-2.27 0,-36.79 19.88,-62.43 54.55,-62.43"
           class="cls-3" />
        <path
           id="path21"
           d="M 98.46,45.75 H 206.3 a 7.51,7.51 0 0 0 7.51,-7.51 V 7.51 A 7.51,7.51 0 0 0 206.3,0 H 98.46 C 68,0 42.8,9.4 25.58,27.17 8.85,44.45 0,69.21 0,98.77 c 0,16 2.7,30.7 7.92,43.76 a 91.64,91.64 0 0 0 17.53,28.11 85.47,85.47 0 0 0 18.47,15.2 C 59.17,195.15 77.64,200 98.46,200 H 206.3 a 7.51,7.51 0 0 0 7.51,-7.51 v -30.74 a 7.51,7.51 0 0 0 -7.51,-7.51 H 99.69 c -12.83,0 -25.72,-3.67 -35.87,-11.4 -11.41,-8.68 -19.35,-22.5 -19.88,-42 0,-0.69 0,-1.38 0,-2.08 0,-33.69 19.88,-53 54.55,-53"
           class="cls-4" />
        <path
           id="path23"
           d="M 25.58,105.95 A 95.41,95.41 0 0 0 6.73,139.38 c 0.38,1.05 0.77,2.1 1.19,3.14 a 91.64,91.64 0 0 0 17.53,28.11 85.47,85.47 0 0 0 18.48,15.19 v 0 c 0,-0.57 0,-1.13 0,-1.71 0,-18.79 5.2,-34.66 14.89,-45.7 -8.65,-8.69 -14.41,-21.1 -14.86,-37.58 0,-0.69 0,-1.38 0,-2.08 a 77.14,77.14 0 0 1 0.47,-8.54 82.69,82.69 0 0 0 -18.79,15.72"
           class="cls-5" />
        <polygon
           id="polygon25"
           points="264.75,35.72 302.15,35.72 302.15,46.52 264.75,46.52 264.75,66.86 303.29,66.86 303.29,77.78 253.16,77.78 253.16,5.48 303.29,5.48 303.29,16.39 264.75,16.39 "
           class="cls-4" />
        <path
           id="path27"
           d="m 365.47,24.24 v 29.44 c 0,15.57 -12.39,25.58 -26.71,25.58 -15.69,0 -26.6,-10 -26.6,-25.58 V 24.24 h 11.59 v 29.67 c 0,9 6.37,14.66 15,14.66 8.63,0 15.12,-5.68 15.12,-14.66 V 24.24 Z"
           class="cls-4" />
        <path
           id="path29"
           d="M 375.69,77.78 V 46.86 c 0,-13.19 8.64,-24.1 25.58,-24.1 a 28.6,28.6 0 0 1 15.12,4.43 l -6,9.55 a 14.42,14.42 0 0 0 -9.09,-3.07 c -8.64,0 -14,5.46 -14,13.53 v 30.58 z"
           class="cls-4" />
        <path
           id="path31"
           d="m 447.42,22.76 c 16.71,0 30.24,12.5 30.24,28.3 0,16 -13.53,28.3 -30.24,28.3 -16.71,0 -29.56,-12.28 -29.56,-28.3 0,-15.8 13,-28.3 29.56,-28.3 m 0,45.92 c 11,0 18.19,-7.16 18.19,-17.62 0,-9.78 -7.16,-17.62 -18.19,-17.62 -10.46,0 -17.51,7.73 -17.51,17.62 0,10.46 7,17.62 17.51,17.62"
           class="cls-4" />
        <path
           id="path33"
           d="m 516.3,79.37 c -7.73,0 -14.89,-3.41 -18.53,-7.39 V 96.65 H 486.29 V 51.18 c 0,-16.37 12.28,-28.42 30,-28.42 16.48,0 29.78,12.39 29.78,28.3 0,15.57 -12.62,28.3 -29.78,28.3 m 0,-45.92 c -10.91,0 -18,7.28 -18,17.85 0,9.66 7,17.28 18,17.28 11,0 17.71,-7.5 17.71,-17.28 0,-10.68 -7.28,-17.85 -17.73,-17.85"
           class="cls-4" />
        <path
           id="path35"
           d="m 598.48,41.29 a 20,20 0 0 0 -16.37,-7.84 c -9.89,0 -17.39,7.39 -17.39,17.62 0,10.46 7.16,17.62 17.51,17.62 7.5,0 12.5,-3 16.82,-8.64 l 8.41,7.16 c -6.25,8 -14.55,12.16 -25.35,12.16 -16.6,0 -29.44,-12.16 -29.44,-28.3 0,-15.12 12.39,-28.3 29.56,-28.3 10.46,0 18.87,4.21 24.89,11.93 z"
           class="cls-4" />
        <path
           id="path37"
           d="m 640.19,22.76 c 17.85,0 30.12,11.82 30.12,28.3 v 26.72 h -10.45 v -5.57 a 29.92,29.92 0 0 1 -19.66,7.16 c -16.82,0 -29.67,-12.73 -29.67,-28.3 0,-15.91 12.39,-28.3 29.67,-28.3 m 0,45.81 c 10.23,0 18.64,-7.73 18.64,-17.5 0,-10 -8.07,-17.62 -18.64,-17.62 -10.23,0 -18.3,7.62 -18.3,17.62 0,9.78 7.84,17.5 18.3,17.5"
           class="cls-4" />
        <path
           id="path39"
           d="M 680.77,77.78 V 46.86 c 0,-13.19 8.64,-24.1 25.58,-24.1 a 28.6,28.6 0 0 1 15.12,4.43 l -6,9.55 a 14.42,14.42 0 0 0 -9.09,-3.07 c -8.64,0 -14,5.46 -14,13.53 v 30.58 z"
           class="cls-4" />
        <polygon
           id="polygon41"
           points="317.27,134.59 291.01,168.7 264.75,134.59 264.75,187.22 253.16,187.22 253.16,114.93 264.53,114.93 291.01,149.37 317.5,114.93 328.87,114.93 328.87,187.22 317.27,187.22 "
           class="cls-4" />
        <path
           id="path43"
           d="m 368.87,132.21 c 16.71,0 30.24,12.5 30.24,28.31 0,16 -13.53,28.3 -30.24,28.3 -16.71,0 -29.56,-12.28 -29.56,-28.3 0,-15.8 13,-28.31 29.56,-28.31 m 0,45.92 c 11,0 18.19,-7.16 18.19,-17.62 0,-9.78 -7.16,-17.62 -18.19,-17.62 -10.46,0 -17.51,7.73 -17.51,17.62 0,10.46 7,17.62 17.51,17.62"
           class="cls-4" />
        <path
           id="path45"
           d="m 437.41,188.82 c -17.73,0 -30,-12 -30,-28.42 v -45.47 h 11.48 v 24.67 c 3.64,-4 10.8,-7.39 18.53,-7.39 17.16,0 29.78,12.73 29.78,28.31 0,15.91 -13.3,28.3 -29.78,28.3 m 0,-45.81 c -10.91,0 -18,7.62 -18,17.28 0,10.57 7,17.85 18,17.85 10.46,0 17.73,-7.16 17.73,-17.85 0,-9.78 -6.82,-17.28 -17.73,-17.28"
           class="cls-4" />
        <path
           id="path47"
           d="m 475,112.2 h 12.28 v 12.62 H 475 Z m 0.34,21.48 H 487 v 53.54 h -11.6 z"
           class="cls-4" />
        <path
           id="path49"
           d="m 509.59,114.93 v 48.76 c 0,9.09 4.77,14.44 13.64,14.44 4.55,0 7.73,-1 12.39,-4.32 l 5.38,9.09 a 27.13,27.13 0 0 1 -17.73,5.91 c -14.78,0 -25.23,-8.64 -25.23,-25.24 v -48.64 z"
           class="cls-4" />
        <path
           id="path51"
           d="m 545.62,112.2 h 12.28 v 12.62 h -12.28 z m 0.34,21.48 h 11.59 v 53.54 H 546 Z"
           class="cls-4" />
        <path
           id="path53"
           d="m 582.45,114.93 v 18.76 h 29.21 v 10.11 h -29.21 v 19.89 c 0,9.09 4.77,14.44 13.64,14.44 a 20.08,20.08 0 0 0 12.16,-4 l 5.68,8.64 a 27.17,27.17 0 0 1 -17.85,6 c -14.89,0 -25.24,-8.87 -25.24,-24.78 v -49.06 z"
           class="cls-4" />
        <polygon
           id="polygon55"
           points="640.76,173.7 615.75,133.68 628.94,133.68 647.01,163.58 665.43,133.68 678.16,133.68 634.28,206.21 620.75,206.21 "
           class="cls-4" />
        <path
           id="path57"
           d="m 248,252.93 c 0,-20.57 16.14,-37.85 39.44,-37.85 15,0 25.23,5.34 33.53,14.32 l -8.75,7.84 a 31.82,31.82 0 0 0 -24.67,-11 c -16.6,0 -27.17,12 -27.17,26.71 0,15.23 11,26.49 28.08,26.49 13.41,0 23.08,-8.53 25.8,-19 h -25.41 v -10.92 h 38.88 v 3.41 c 0,20.92 -16.71,37.63 -39.22,37.63 -24.78,0 -40.47,-17.62 -40.47,-37.63"
           class="cls-4" />
        <path
           id="path59"
           d="m 337.5,289 v -31 c 0,-13.19 8.64,-24.1 25.58,-24.1 a 28.6,28.6 0 0 1 15.12,4.43 l -6,9.55 a 14.41,14.41 0 0 0 -9.09,-3.07 c -8.64,0 -14,5.46 -14,13.53 V 289 Z"
           class="cls-4" />
        <path
           id="path61"
           d="m 407,233.94 c 16.71,0 30.24,12.5 30.24,28.3 0,16 -13.53,28.3 -30.24,28.3 -16.71,0 -29.56,-12.28 -29.56,-28.3 0,-15.8 13,-28.3 29.56,-28.3 m 0,45.92 c 11,0 18.19,-7.16 18.19,-17.62 0,-9.78 -7.16,-17.62 -18.19,-17.62 -10.46,0 -17.51,7.73 -17.51,17.62 0,10.46 7,17.62 17.51,17.62"
           class="cls-4" />
        <path
           id="path63"
           d="m 497.77,235.42 v 29.44 c 0,15.57 -12.39,25.58 -26.71,25.58 -15.69,0 -26.6,-10 -26.6,-25.58 v -29.44 h 11.6 v 29.67 c 0,9 6.36,14.67 15,14.67 8.64,0 15.12,-5.68 15.12,-14.67 v -29.67 z"
           class="cls-4" />
        <path
           id="path65"
           d="m 537.1,290.55 c -7.73,0 -14.89,-3.41 -18.53,-7.39 v 24.67 h -11.48 v -45.47 c 0,-16.37 12.28,-28.42 30,-28.42 16.48,0 29.78,12.39 29.78,28.3 0,15.57 -12.62,28.31 -29.78,28.31 m 0,-45.92 c -10.91,0 -18,7.28 -18,17.85 0,9.66 7,17.28 18,17.28 11,0 17.73,-7.5 17.73,-17.28 0,-10.69 -7.28,-17.85 -17.73,-17.85"
           class="cls-4" />
      </g>
    </g>
  </g>
</svg>
